<svg xmlns="http://www.w3.org/2000/svg" fill="#C59D35" viewBox="0 0 24 24">
  <path d="M20.52 3.48A11.94 11.94 0 0012 0C5.37 0 0 5.37 0 12c0 2.11.55 4.15 1.6 5.96L0 24l6.26-1.63A12 12 0 0012 24c6.63 0 12-5.37 12-12 0-3.19-1.24-6.19-3.48-8.52zM12 22a9.9 9.9 0 01-5.06-1.39l-.36-.21-3.72.97 1-3.63-.24-.37A9.94 9.94 0 012 12C2 6.49 6.49 2 12 2c2.66 0 5.16 1.04 7.04 2.93A9.94 9.94 0 0122 12c0 5.51-4.49 10-10 10zm5.42-7.58c-.3-.15-1.77-.87-2.05-.97-.28-.1-.48-.15-.68.15s-.78.97-.95 1.17c-.18.2-.35.23-.65.08-1.77-.88-2.93-1.58-4.1-3.57-.31-.53.31-.5.88-1.65.1-.2.05-.38-.03-.53-.08-.15-.68-1.63-.93-2.23-.25-.6-.51-.52-.68-.53h-.58c-.2 0-.53.08-.8.38s-1.05 1.03-1.05 2.52 1.08 2.92 1.23 3.12c.15.2 2.12 3.23 5.14 4.53.72.31 1.28.5 1.72.64.72.23 1.38.2 1.9.12.58-.09 1.77-.72 2.02-1.41.25-.68.25-1.27.18-1.41-.08-.15-.28-.23-.58-.38z"></path>
</svg>
